<svg width="19" height="21" viewBox="0 0 19 21" fill="none" xmlns="http://www.w3.org/2000/svg">
<g style="mix-blend-mode:darken" filter="url(#filter0_d)">
<path d="M5.30371 0H14.0537C14.2195 0 14.3784 0.0663468 14.4957 0.184445C14.6129 0.302543 14.6787 0.462718 14.6787 0.629734V12.6847C14.6788 12.741 14.6639 12.7963 14.6355 12.8449C14.6072 12.8934 14.5664 12.9333 14.5176 12.9606C14.4687 12.9879 14.4134 13.0014 14.3576 12.9999C14.3017 12.9983 14.2473 12.9817 14.2 12.9517L9.67871 10.0946L5.15746 12.9511C5.11019 12.981 5.05583 12.9977 5.00002 12.9992C4.94422 13.0008 4.88901 12.9873 4.84015 12.9601C4.79128 12.9329 4.75053 12.8931 4.72214 12.8446C4.69375 12.7962 4.67875 12.741 4.67871 12.6847V0.629734C4.67871 0.462718 4.74456 0.302543 4.86177 0.184445C4.97898 0.0663468 5.13795 0 5.30371 0ZM5.92871 1.25947L10.6787 4L13 7.5L13.4287 10.9775L5.92871 1.25947Z" fill="#EC5118"/>
</g>
<defs>
<filter id="filter0_d" x="0.678711" y="0" width="18" height="21" filterUnits="userSpaceOnUse" color-interpolation-filters="sRGB">
<feFlood flood-opacity="0" result="BackgroundImageFix"/>
<feColorMatrix in="SourceAlpha" type="matrix" values="0 0 0 0 0 0 0 0 0 0 0 0 0 0 0 0 0 0 127 0" result="hardAlpha"/>
<feOffset dy="4"/>
<feGaussianBlur stdDeviation="2"/>
<feComposite in2="hardAlpha" operator="out"/>
<feColorMatrix type="matrix" values="0 0 0 0 0 0 0 0 0 0 0 0 0 0 0 0 0 0 0.25 0"/>
<feBlend mode="normal" in2="BackgroundImageFix" result="effect1_dropShadow"/>
<feBlend mode="normal" in="SourceGraphic" in2="effect1_dropShadow" result="shape"/>
</filter>
</defs>
</svg>
